<svg id="Capa_1" data-name="Capa 1" xmlns="http://www.w3.org/2000/svg" viewBox="0 0 400 400"><defs><style>.cls-1{fill:#004297;}.cls-2{fill:#fff;}</style></defs><title>2Mesa de trabajo 1</title><rect class="cls-1" width="400" height="400"/><path class="cls-2" d="M112.69,187.31l22.38,12.78,5.27-9.26-27.67-15.7V120.25l45.61,26.53,0,35.42H169l-.16-29.34,22.78,13.32,8.19-13.59-23.4-13.45,25.55-14.7-5.33-9.2-30.74,17.83-45.76-26.28,46.13-26.64L197,97.92l5.24-9.27-25.5-14.58,22.67-12.93L191.95,47,169.18,60l.11-29.45H158.65V66.11l-46,26.37V38.07l30.79-17.72-5.39-9.19L112.64,25.91l0-24.8H96.67L96.79,50a57.16,57.16,0,0,0-18.86,6.07L49.67,17.47,36.85,26.78,65.14,65.31A57,57,0,0,0,53,81.83L7.16,66.59,2.25,81.67l45.9,15.19a58.29,58.29,0,0,0-.61,9.74,56.84,56.84,0,0,0,1,10.23L3.22,131.38l4.9,15.08,45.31-14.62a57.26,57.26,0,0,0,11.63,15.88L36.88,186.62l12.83,9.32L77.83,157a56.41,56.41,0,0,0,19,6.19l-.06,48.87H112.6l.07-24.77"/></svg>