<svg xmlns="http://www.w3.org/2000/svg" viewBox="0 0 450.61 450.61"><defs><style>.cls-1{fill:#00579a;}.cls-2{fill:#fff;}.cls-3{fill:none;stroke:#fff;stroke-width:0.98px;}</style></defs><title>Recurso 2</title><g id="Capa_2" data-name="Capa 2"><g id="Capa_1-2" data-name="Capa 1"><rect class="cls-1" x="1.22" y="1.19" width="449.4" height="449.42"/><path class="cls-1" d="M225.92,225.9"/><path class="cls-2" d="M167.2,281.35,201,300.62l7.94-14L167.16,263V180.19l68.79,40,.06,53.43h16.06l-.24-44.26,34.36,20.09L298.54,229l-35.3-20.28,38.54-22.18-8-13.88-46.37,26.89-69-39.63,69.58-40.18,46.46,26.8,7.9-14-38.47-22L298,91,286.75,69.67,252.41,89.35l.16-44.43H236.52l0,53.61L167.16,138.3V56.23l46.44-26.73-8.13-13.87L167.13,37.9l0-37.41H143l.18,73.71a86.22,86.22,0,0,0-28.45,9.16L72.15,25.16l-19.34,14L95.48,97.32a86,86,0,0,0-18.38,24.92L8,99.26.61,122l69.23,22.91a87.93,87.93,0,0,0-.92,14.69A85.73,85.73,0,0,0,70.39,175L2.07,197l7.39,22.74,68.34-22a86.37,86.37,0,0,0,17.54,24L52.86,280.31l19.36,14.05,42.4-58.7A85.08,85.08,0,0,0,143.23,245l-.09,73.71h23.92l.11-37.36"/><path class="cls-3" d="M167.2,281.35,201,300.62l7.94-14L167.16,263V180.19l68.79,40,.06,53.43h16.06l-.24-44.26,34.36,20.09L298.54,229l-35.3-20.28,38.54-22.18-8-13.88-46.37,26.89-69-39.63,69.58-40.18,46.46,26.8,7.9-14-38.47-22L298,91,286.75,69.67,252.41,89.35l.16-44.43H236.52l0,53.61L167.16,138.3V56.23l46.44-26.73-8.13-13.87L167.13,37.9l0-37.41H143l.18,73.71a86.22,86.22,0,0,0-28.45,9.16L72.15,25.16l-19.34,14L95.48,97.32a86,86,0,0,0-18.38,24.92L8,99.26.61,122l69.23,22.91a87.93,87.93,0,0,0-.92,14.69A85.73,85.73,0,0,0,70.39,175L2.07,197l7.39,22.74,68.34-22a86.37,86.37,0,0,0,17.54,24L52.86,280.31l19.36,14.05,42.4-58.7A85.08,85.08,0,0,0,143.23,245l-.09,73.71h23.92l.11-37.36"/></g></g></svg>