<svg id="Layer_1" data-name="Layer 1" xmlns="http://www.w3.org/2000/svg" viewBox="0 0 202.6 66.25"><defs><style>.cls-1{fill:#00579a;}.cls-2,.cls-4{fill:#fff;}.cls-3{fill:none;stroke:#fff;stroke-width:0.98px;}.cls-4{stroke:#000;stroke-miterlimit:10;}.cls-5,.cls-8{font-size:13.13px;font-family:ArialMT, Arial;}.cls-5{fill:#ededed;}.cls-6{letter-spacing:-0.06em;}.cls-7{letter-spacing:-0.02em;}.cls-8{fill:#0c0c0c;}</style></defs><title>Mesa de trabajo 1</title><polyline points="73.3 46.5 60.9 46.5 60.9 30.1 46.9 1.6 60.7 1.6 67.2 16.8 73.7 1.6 87.3 1.6 73.3 29.9 73.3 46.5"/><path d="M94.5,23.8c0,5.7,1.5,12.9,7.4,12.9,5.3,0,7.4-5.5,7.4-12.9,0-6.1-2.1-12.6-7.5-12.4-5.7,0-7.4,6.7-7.3,12.4m27.1,0c0,15.3-8.6,23.9-19.8,23.9-11.8,0-19.7-8.7-19.7-24C82.1,9.6,90.1.5,101.8.5c13.5-.1,19.8,11.4,19.8,23.3Z"/><path d="M136.5,21h4.9c3.8,0,5.8-1.1,5.8-4.2s-2.1-4.7-5-4.7h-5.7V21m0,9.9V46.5H124.2V1.6H142c12.5,0,16.7,4.1,16.7,12.8,0,5.2-1.9,9.5-6.3,11,4,1.8,6.4,2.9,6.4,11.9,0,5.9-.2,7.8,1.3,7.8v1.4H147.6a34.21,34.21,0,0,1-.6-7.8c0-5.9-.8-7.8-6.6-7.8Z"/><polyline points="162 1.6 174.4 1.6 174.4 16.1 185.2 1.6 199.7 1.6 185.9 18.5 201.1 46.5 186.3 46.5 177.3 28.6 174.4 32.3 174.4 46.5 162 46.5 162 1.6"/><g id="Capa_2" data-name="Capa 2"><g id="Capa_1-2" data-name="Capa 1-2"><rect class="cls-1" x="1.1" y="1.6" width="44.9" height="45"/><path class="cls-2" d="M17.7,29.6l3.4,1.9.8-1.4-4.2-2.4V19.4l6.9,4v5.3h1.6V24.3l3.4,2,1.2-2-3.5-2,3.9-2.2-.8-1.4-4.6,2.7-6.9-4,7-4,4.6,2.7.8-1.4-3.8-2.2,3.4-2L29.8,8.4l-3.4,2V6H24.8v5.4l-6.9,4V7.1l4.6-2.7L21.7,3,17.9,5.2V1.5H15.5V8.9a6.6,6.6,0,0,0-2.8.9L8.2,4l-2,1.4,4.3,5.8a7.25,7.25,0,0,0-1.8,2.5L1.8,11.4,1,13.7,7.9,16a7.57,7.57,0,0,0-.1,1.5c0,.5.1,1,.1,1.5L1.1,21.2l.7,2.3,6.8-2.2a6.9,6.9,0,0,0,1.8,2.4L6.2,29.6,8.1,31l4.2-5.9a7.54,7.54,0,0,0,2.9.9v7.4h2.4l.1-3.8"/><path class="cls-3" d="M17.7,29.6l3.4,1.9.8-1.4-4.2-2.4V19.4l6.9,4v5.3h1.6V24.3l3.4,2,1.2-2-3.5-2,3.9-2.2-.8-1.4-4.6,2.7-6.9-4,7-4,4.6,2.7.8-1.4-3.8-2.2,3.4-2L29.8,8.4l-3.4,2V6H24.8v5.4l-6.9,4V7.1l4.6-2.7L21.7,3,17.9,5.2V1.5H15.5V8.9a6.6,6.6,0,0,0-2.8.9L8.2,4l-2,1.4,4.3,5.8a7.25,7.25,0,0,0-1.8,2.5L1.8,11.4,1,13.7,7.9,16a7.57,7.57,0,0,0-.1,1.5c0,.5.1,1,.1,1.5L1.1,21.2l.7,2.3,6.8-2.2a6.9,6.9,0,0,0,1.8,2.4L6.2,29.6,8.1,31l4.2-5.9a7.54,7.54,0,0,0,2.9.9v7.4h2.4l.1-3.8"/></g></g><line class="cls-4" x1="1.1" y1="51.75" x2="201.1" y2="51.25"/><text class="cls-5" transform="translate(1.6 65) scale(1.09 1)">DISTRIBUIDOR<tspan class="cls-6" x="94.09" y="0"> </tspan><tspan x="97.01" y="0">AU</tspan><tspan class="cls-7" x="115.25" y="0">T</tspan><tspan x="123.03" y="0">ORIZADO</tspan></text><text class="cls-8" transform="translate(1.1 64.74) scale(1.09 1)">DISTRIBUIDOR<tspan class="cls-6" x="94.09" y="0"> </tspan><tspan x="97.01" y="0">AU</tspan><tspan class="cls-7" x="115.25" y="0">T</tspan><tspan x="123.03" y="0">ORIZADO</tspan></text></svg>