<svg id="Layer_1" data-name="Layer 1" xmlns="http://www.w3.org/2000/svg" viewBox="0 0 155.25 48"><title>2Mesa de trabajo 3</title><polyline points="26.91 46.47 14.58 46.47 14.58 30.14 0.57 1.6 14.37 1.6 20.85 16.8 27.33 1.6 40.92 1.6 26.91 29.89 26.91 46.47"/><path d="M48.1,23.78c0,5.73,1.46,12.9,7.37,12.9,5.33,0,7.42-5.48,7.42-12.9,0-6.11-2.09-12.59-7.53-12.4-5.59,0-7.27,6.73-7.27,12.4m27.12,0c0,15.27-8.62,23.87-19.76,23.87-11.81,0-19.7-8.72-19.7-24,0-14.08,8-23.24,19.7-23.24C68.9.42,75.22,11.94,75.22,23.78Z"/><path d="M90.14,21H95c3.82,0,5.85-1.12,5.85-4.24s-2.09-4.67-5-4.67H90.14V21m0,9.85V46.47H77.81V1.6H95.58c12.54,0,16.67,4.05,16.67,12.78,0,5.17-1.93,9.53-6.32,11,4,1.75,6.38,2.87,6.38,11.9,0,5.86-.16,7.85,1.31,7.85v1.37H101.12a34.71,34.71,0,0,1-.63-7.85c0-5.86-.84-7.79-6.58-7.79Z"/><polyline points="115.69 1.6 128.02 1.6 128.02 16.12 138.84 1.6 153.32 1.6 139.57 18.49 154.78 46.47 139.99 46.47 130.95 28.58 128.02 32.26 128.02 46.47 115.69 46.47 115.69 1.6"/></svg>