<svg id="Capa_1" data-name="Capa 1" xmlns="http://www.w3.org/2000/svg" viewBox="0 0 202 65"><defs><style>.cls-1,.cls-9{font-size:13.13px;font-family:ArialMT, Arial;}.cls-1{fill:#383838;}.cls-2{letter-spacing:-0.06em;}.cls-3{letter-spacing:-0.02em;}.cls-4,.cls-7{stroke:#fff;}.cls-4,.cls-8{stroke-miterlimit:10;}.cls-4{stroke-width:0.25px;}.cls-5{fill:#00579a;}.cls-6,.cls-8{fill:#fff;}.cls-7{fill:none;stroke-width:0.98px;}.cls-8{stroke:#000;}.cls-9{fill:#efefef;}</style></defs><title>Mesa de trabajo 1</title><text class="cls-1" transform="translate(2 63.27) scale(1.09 1)">DISTRIBUIDOR<tspan class="cls-2" x="94.09" y="0"> </tspan><tspan x="97.01" y="0">AU</tspan><tspan class="cls-3" x="115.25" y="0">T</tspan><tspan x="123.03" y="0">ORIZADO</tspan></text><polyline class="cls-4" points="73.2 46.03 60.8 46.03 60.8 29.63 46.8 1.13 60.6 1.13 67.1 16.33 73.6 1.13 87.2 1.13 73.2 29.43 73.2 46.03"/><path class="cls-4" d="M94.4,23.33c0,5.7,1.5,12.9,7.4,12.9,5.3,0,7.4-5.5,7.4-12.9,0-6.1-2.1-12.6-7.5-12.4-5.7,0-7.4,6.7-7.3,12.4m27.1,0c0,15.3-8.6,23.9-19.8,23.9-11.8,0-19.7-8.7-19.7-24C82,9.13,90,0,101.7,0c13.5-.1,19.8,11.4,19.8,23.3Z"/><path class="cls-4" d="M136.4,20.53h4.9c3.8,0,5.8-1.1,5.8-4.2s-2.1-4.7-5-4.7h-5.7v8.9m0,9.9V46H124.1V1.13h17.8c12.5,0,16.7,4.1,16.7,12.8,0,5.2-1.9,9.5-6.3,11,4,1.8,6.4,2.9,6.4,11.9,0,5.9-.2,7.8,1.3,7.8V46H147.5a34.21,34.21,0,0,1-.6-7.8c0-5.9-.8-7.8-6.6-7.8Z"/><polyline class="cls-4" points="161.9 1.13 174.3 1.13 174.3 15.63 185.1 1.13 199.6 1.13 185.8 18.03 201 46.03 186.2 46.03 177.2 28.13 174.3 31.83 174.3 46.03 161.9 46.03 161.9 1.13"/><g id="Capa_2" data-name="Capa 2"><g id="Capa_1-2" data-name="Capa 1-2"><rect class="cls-5" x="1" y="1.13" width="44.9" height="45"/><path class="cls-6" d="M17.6,29.13,21,31l.8-1.4-4.2-2.4v-8.3l6.9,4v5.3h1.6v-4.4l3.4,2,1.2-2-3.5-2,3.9-2.2-.8-1.4-4.6,2.7-6.9-4,7-4,4.6,2.7.8-1.4L27.4,12l3.4-2-1.1-2.1-3.4,2V5.53H24.7v5.4l-6.9,4V6.63l4.6-2.7-.8-1.4-3.8,2.2V1H15.4v7.4a6.6,6.6,0,0,0-2.8.9L8.1,3.53l-2,1.4,4.3,5.8a7.25,7.25,0,0,0-1.8,2.5l-6.9-2.3-.8,2.3,6.9,2.3A7.57,7.57,0,0,0,7.7,17c0,.5.1,1,.1,1.5L1,20.73,1.7,23l6.8-2.2a6.9,6.9,0,0,0,1.8,2.4l-4.2,5.9L8,30.53l4.2-5.9a7.54,7.54,0,0,0,2.9.9v7.4h2.4l.1-3.8"/><path class="cls-7" d="M17.6,29.13,21,31l.8-1.4-4.2-2.4v-8.3l6.9,4v5.3h1.6v-4.4l3.4,2,1.2-2-3.5-2,3.9-2.2-.8-1.4-4.6,2.7-6.9-4,7-4,4.6,2.7.8-1.4L27.4,12l3.4-2-1.1-2.1-3.4,2V5.53H24.7v5.4l-6.9,4V6.63l4.6-2.7-.8-1.4-3.8,2.2V1H15.4v7.4a6.6,6.6,0,0,0-2.8.9L8.1,3.53l-2,1.4,4.3,5.8a7.25,7.25,0,0,0-1.8,2.5l-6.9-2.3-.8,2.3,6.9,2.3A7.57,7.57,0,0,0,7.7,17c0,.5.1,1,.1,1.5L1,20.73,1.7,23l6.8-2.2a6.9,6.9,0,0,0,1.8,2.4l-4.2,5.9L8,30.53l4.2-5.9a7.54,7.54,0,0,0,2.9.9v7.4h2.4l.1-3.8"/></g></g><line class="cls-8" x1="1" y1="50.28" x2="201" y2="49.78"/><text class="cls-9" transform="translate(1 63.27) scale(1.09 1)">DISTRIBUIDOR<tspan class="cls-2" x="94.09" y="0"> </tspan><tspan x="97.01" y="0">AU</tspan><tspan class="cls-3" x="115.25" y="0">T</tspan><tspan x="123.03" y="0">ORIZADO</tspan></text></svg>